<mxfile host="app.diagrams.net" modified="2022-02-15T06:33:27.961Z" agent="5.0 (Macintosh; Intel Mac OS X 10_15_7) AppleWebKit/537.36 (KHTML, like Gecko) Chrome/98.0.4758.80 Safari/537.36" etag="hL1YubN1BHdeUd7uqfvl" version="16.5.6" type="github">
  <diagram id="YnUGl2D3-CGaJ8Iy-Q9j" name="Page-1">
    <mxGraphModel dx="946" dy="598" grid="1" gridSize="10" guides="1" tooltips="1" connect="1" arrows="1" fold="1" page="1" pageScale="1" pageWidth="827" pageHeight="1169" math="0" shadow="0">
      <root>
        <mxCell id="0" />
        <mxCell id="1" parent="0" />
        <mxCell id="x8cK-u_tZf674WBEwClD-8" value="" style="edgeStyle=orthogonalEdgeStyle;rounded=0;orthogonalLoop=1;jettySize=auto;html=1;" edge="1" parent="1" source="x8cK-u_tZf674WBEwClD-1" target="x8cK-u_tZf674WBEwClD-7">
          <mxGeometry relative="1" as="geometry" />
        </mxCell>
        <mxCell id="x8cK-u_tZf674WBEwClD-1" value="Admin Dashboard" style="rounded=0;whiteSpace=wrap;html=1;" vertex="1" parent="1">
          <mxGeometry x="210" y="170" width="120" height="60" as="geometry" />
        </mxCell>
        <mxCell id="x8cK-u_tZf674WBEwClD-2" value="ROR" style="text;html=1;align=center;verticalAlign=middle;resizable=0;points=[];autosize=1;strokeColor=none;fillColor=none;" vertex="1" parent="1">
          <mxGeometry x="250" y="140" width="40" height="20" as="geometry" />
        </mxCell>
        <mxCell id="x8cK-u_tZf674WBEwClD-3" value="Actor" style="shape=umlActor;verticalLabelPosition=bottom;verticalAlign=top;html=1;outlineConnect=0;" vertex="1" parent="1">
          <mxGeometry x="130" y="170" width="30" height="60" as="geometry" />
        </mxCell>
        <mxCell id="x8cK-u_tZf674WBEwClD-6" value="Agent" style="text;html=1;align=center;verticalAlign=middle;resizable=0;points=[];autosize=1;strokeColor=none;fillColor=none;" vertex="1" parent="1">
          <mxGeometry x="115" y="120" width="50" height="20" as="geometry" />
        </mxCell>
        <mxCell id="x8cK-u_tZf674WBEwClD-10" value="" style="edgeStyle=orthogonalEdgeStyle;rounded=0;orthogonalLoop=1;jettySize=auto;html=1;" edge="1" parent="1" source="x8cK-u_tZf674WBEwClD-7" target="x8cK-u_tZf674WBEwClD-9">
          <mxGeometry relative="1" as="geometry" />
        </mxCell>
        <mxCell id="x8cK-u_tZf674WBEwClD-11" style="edgeStyle=orthogonalEdgeStyle;rounded=0;orthogonalLoop=1;jettySize=auto;html=1;" edge="1" parent="1" source="x8cK-u_tZf674WBEwClD-7" target="x8cK-u_tZf674WBEwClD-12">
          <mxGeometry relative="1" as="geometry">
            <mxPoint x="580" y="300" as="targetPoint" />
            <Array as="points">
              <mxPoint x="680" y="220" />
            </Array>
          </mxGeometry>
        </mxCell>
        <mxCell id="x8cK-u_tZf674WBEwClD-14" value="" style="edgeStyle=orthogonalEdgeStyle;rounded=0;orthogonalLoop=1;jettySize=auto;html=1;" edge="1" parent="1" source="x8cK-u_tZf674WBEwClD-7" target="x8cK-u_tZf674WBEwClD-13">
          <mxGeometry relative="1" as="geometry" />
        </mxCell>
        <mxCell id="x8cK-u_tZf674WBEwClD-18" value="" style="edgeStyle=orthogonalEdgeStyle;rounded=0;orthogonalLoop=1;jettySize=auto;html=1;" edge="1" parent="1" source="x8cK-u_tZf674WBEwClD-7" target="x8cK-u_tZf674WBEwClD-17">
          <mxGeometry relative="1" as="geometry" />
        </mxCell>
        <mxCell id="x8cK-u_tZf674WBEwClD-20" style="edgeStyle=orthogonalEdgeStyle;rounded=0;orthogonalLoop=1;jettySize=auto;html=1;entryX=0.5;entryY=1;entryDx=0;entryDy=0;entryPerimeter=0;" edge="1" parent="1" source="x8cK-u_tZf674WBEwClD-7" target="x8cK-u_tZf674WBEwClD-19">
          <mxGeometry relative="1" as="geometry">
            <Array as="points">
              <mxPoint x="370" y="200" />
            </Array>
          </mxGeometry>
        </mxCell>
        <mxCell id="x8cK-u_tZf674WBEwClD-7" value="Admin Service" style="rounded=0;whiteSpace=wrap;html=1;" vertex="1" parent="1">
          <mxGeometry x="410" y="170" width="120" height="60" as="geometry" />
        </mxCell>
        <mxCell id="x8cK-u_tZf674WBEwClD-9" value="OF service&amp;nbsp;" style="rounded=0;whiteSpace=wrap;html=1;" vertex="1" parent="1">
          <mxGeometry x="610" y="130" width="120" height="60" as="geometry" />
        </mxCell>
        <mxCell id="x8cK-u_tZf674WBEwClD-12" value="E-consult" style="rounded=0;whiteSpace=wrap;html=1;" vertex="1" parent="1">
          <mxGeometry x="620" y="240" width="120" height="60" as="geometry" />
        </mxCell>
        <mxCell id="x8cK-u_tZf674WBEwClD-16" value="" style="edgeStyle=orthogonalEdgeStyle;rounded=0;orthogonalLoop=1;jettySize=auto;html=1;" edge="1" parent="1" source="x8cK-u_tZf674WBEwClD-13" target="x8cK-u_tZf674WBEwClD-15">
          <mxGeometry relative="1" as="geometry" />
        </mxCell>
        <mxCell id="x8cK-u_tZf674WBEwClD-13" value="Fulfillment Service" style="rounded=0;whiteSpace=wrap;html=1;" vertex="1" parent="1">
          <mxGeometry x="410" y="30" width="120" height="60" as="geometry" />
        </mxCell>
        <mxCell id="x8cK-u_tZf674WBEwClD-15" value="OF Replica" style="shape=cylinder3;whiteSpace=wrap;html=1;boundedLbl=1;backgroundOutline=1;size=15;" vertex="1" parent="1">
          <mxGeometry x="630" y="20" width="60" height="80" as="geometry" />
        </mxCell>
        <mxCell id="x8cK-u_tZf674WBEwClD-22" value="" style="edgeStyle=orthogonalEdgeStyle;rounded=0;orthogonalLoop=1;jettySize=auto;html=1;" edge="1" parent="1" source="x8cK-u_tZf674WBEwClD-17" target="x8cK-u_tZf674WBEwClD-21">
          <mxGeometry relative="1" as="geometry" />
        </mxCell>
        <mxCell id="x8cK-u_tZf674WBEwClD-26" value="" style="edgeStyle=orthogonalEdgeStyle;rounded=0;orthogonalLoop=1;jettySize=auto;html=1;" edge="1" parent="1" source="x8cK-u_tZf674WBEwClD-17" target="x8cK-u_tZf674WBEwClD-25">
          <mxGeometry relative="1" as="geometry" />
        </mxCell>
        <mxCell id="x8cK-u_tZf674WBEwClD-31" style="edgeStyle=orthogonalEdgeStyle;rounded=0;orthogonalLoop=1;jettySize=auto;html=1;entryX=1;entryY=0.5;entryDx=0;entryDy=0;" edge="1" parent="1" source="x8cK-u_tZf674WBEwClD-17" target="x8cK-u_tZf674WBEwClD-27">
          <mxGeometry relative="1" as="geometry">
            <Array as="points">
              <mxPoint x="420" y="320" />
            </Array>
          </mxGeometry>
        </mxCell>
        <mxCell id="x8cK-u_tZf674WBEwClD-39" style="edgeStyle=orthogonalEdgeStyle;rounded=0;orthogonalLoop=1;jettySize=auto;html=1;exitX=0.75;exitY=1;exitDx=0;exitDy=0;entryX=0;entryY=0.5;entryDx=0;entryDy=0;" edge="1" parent="1" source="x8cK-u_tZf674WBEwClD-17" target="x8cK-u_tZf674WBEwClD-37">
          <mxGeometry relative="1" as="geometry" />
        </mxCell>
        <mxCell id="x8cK-u_tZf674WBEwClD-40" style="edgeStyle=orthogonalEdgeStyle;rounded=0;orthogonalLoop=1;jettySize=auto;html=1;" edge="1" parent="1" source="x8cK-u_tZf674WBEwClD-17">
          <mxGeometry relative="1" as="geometry">
            <mxPoint x="750" y="400" as="targetPoint" />
          </mxGeometry>
        </mxCell>
        <mxCell id="x8cK-u_tZf674WBEwClD-17" value="Chat Service" style="rounded=0;whiteSpace=wrap;html=1;" vertex="1" parent="1">
          <mxGeometry x="410" y="360" width="120" height="60" as="geometry" />
        </mxCell>
        <mxCell id="x8cK-u_tZf674WBEwClD-19" value="Admin Service" style="shape=cylinder3;whiteSpace=wrap;html=1;boundedLbl=1;backgroundOutline=1;size=15;" vertex="1" parent="1">
          <mxGeometry x="340" y="10" width="60" height="80" as="geometry" />
        </mxCell>
        <mxCell id="x8cK-u_tZf674WBEwClD-21" value="Chatbot" style="rounded=0;whiteSpace=wrap;html=1;" vertex="1" parent="1">
          <mxGeometry x="610" y="310" width="120" height="60" as="geometry" />
        </mxCell>
        <mxCell id="x8cK-u_tZf674WBEwClD-24" style="edgeStyle=orthogonalEdgeStyle;rounded=0;orthogonalLoop=1;jettySize=auto;html=1;" edge="1" parent="1" source="x8cK-u_tZf674WBEwClD-23" target="x8cK-u_tZf674WBEwClD-17">
          <mxGeometry relative="1" as="geometry" />
        </mxCell>
        <mxCell id="x8cK-u_tZf674WBEwClD-23" value="Actor" style="shape=umlActor;verticalLabelPosition=bottom;verticalAlign=top;html=1;outlineConnect=0;" vertex="1" parent="1">
          <mxGeometry x="125" y="400" width="30" height="60" as="geometry" />
        </mxCell>
        <mxCell id="x8cK-u_tZf674WBEwClD-25" value="Zendesk" style="rounded=0;whiteSpace=wrap;html=1;" vertex="1" parent="1">
          <mxGeometry x="410" y="500" width="120" height="60" as="geometry" />
        </mxCell>
        <mxCell id="x8cK-u_tZf674WBEwClD-29" style="edgeStyle=orthogonalEdgeStyle;rounded=0;orthogonalLoop=1;jettySize=auto;html=1;" edge="1" parent="1" source="x8cK-u_tZf674WBEwClD-27">
          <mxGeometry relative="1" as="geometry">
            <mxPoint x="150" y="250" as="targetPoint" />
          </mxGeometry>
        </mxCell>
        <mxCell id="x8cK-u_tZf674WBEwClD-30" style="edgeStyle=orthogonalEdgeStyle;rounded=0;orthogonalLoop=1;jettySize=auto;html=1;entryX=0.5;entryY=0;entryDx=0;entryDy=0;entryPerimeter=0;" edge="1" parent="1" source="x8cK-u_tZf674WBEwClD-27" target="x8cK-u_tZf674WBEwClD-23">
          <mxGeometry relative="1" as="geometry" />
        </mxCell>
        <mxCell id="x8cK-u_tZf674WBEwClD-27" value="Sendbird" style="rounded=0;whiteSpace=wrap;html=1;" vertex="1" parent="1">
          <mxGeometry x="140" y="290" width="120" height="60" as="geometry" />
        </mxCell>
        <mxCell id="x8cK-u_tZf674WBEwClD-28" value="Customer" style="text;html=1;align=center;verticalAlign=middle;resizable=0;points=[];autosize=1;strokeColor=none;fillColor=none;" vertex="1" parent="1">
          <mxGeometry x="95" y="500" width="70" height="20" as="geometry" />
        </mxCell>
        <mxCell id="x8cK-u_tZf674WBEwClD-32" value="username&lt;br&gt;access_token" style="text;html=1;align=center;verticalAlign=middle;resizable=0;points=[];autosize=1;strokeColor=none;fillColor=none;" vertex="1" parent="1">
          <mxGeometry x="215" y="435" width="90" height="30" as="geometry" />
        </mxCell>
        <mxCell id="x8cK-u_tZf674WBEwClD-33" value="Javascript SDK" style="text;html=1;align=center;verticalAlign=middle;resizable=0;points=[];autosize=1;strokeColor=none;fillColor=none;" vertex="1" parent="1">
          <mxGeometry x="30" y="400" width="100" height="20" as="geometry" />
        </mxCell>
        <mxCell id="x8cK-u_tZf674WBEwClD-34" value="Javascript SDK" style="text;html=1;align=center;verticalAlign=middle;resizable=0;points=[];autosize=1;strokeColor=none;fillColor=none;" vertex="1" parent="1">
          <mxGeometry x="25" y="200" width="100" height="20" as="geometry" />
        </mxCell>
        <mxCell id="x8cK-u_tZf674WBEwClD-36" value="JSG" style="rounded=0;whiteSpace=wrap;html=1;" vertex="1" parent="1">
          <mxGeometry x="670" y="500" width="120" height="60" as="geometry" />
        </mxCell>
        <mxCell id="x8cK-u_tZf674WBEwClD-38" style="edgeStyle=orthogonalEdgeStyle;rounded=0;orthogonalLoop=1;jettySize=auto;html=1;entryX=0.567;entryY=0.017;entryDx=0;entryDy=0;entryPerimeter=0;" edge="1" parent="1" source="x8cK-u_tZf674WBEwClD-37" target="x8cK-u_tZf674WBEwClD-36">
          <mxGeometry relative="1" as="geometry" />
        </mxCell>
        <mxCell id="x8cK-u_tZf674WBEwClD-37" value="Redis" style="whiteSpace=wrap;html=1;aspect=fixed;" vertex="1" parent="1">
          <mxGeometry x="570" y="420" width="80" height="80" as="geometry" />
        </mxCell>
        <mxCell id="x8cK-u_tZf674WBEwClD-41" value="Postgres" style="shape=cylinder3;whiteSpace=wrap;html=1;boundedLbl=1;backgroundOutline=1;size=15;" vertex="1" parent="1">
          <mxGeometry x="750" y="360" width="60" height="80" as="geometry" />
        </mxCell>
      </root>
    </mxGraphModel>
  </diagram>
</mxfile>
